<?xml version="1.0" encoding="utf-8"?><svg xmlns="http://www.w3.org/2000/svg" xmlns:xlink="http://www.w3.org/1999/xlink"><symbol viewBox="0 0 24 24" id="android" xmlns="http://www.w3.org/2000/svg"><path d="M6 8l.001 9.444c0 .861.696 1.556 1.557 1.556H8v3.542C8 23.346 8.707 24 9.51 24c.806 0 1.49-.654 1.49-1.459V19h2v3.542c0 .804.707 1.458 1.511 1.458.806 0 1.489-.654 1.489-1.459V19l.444-.001c.858 0 1.556-.696 1.556-1.557V8H6zm16 1.471C22 8.666 21.305 8 20.5 8c-.805-.001-1.5.667-1.5 1.472v6.106c0 .806.694 1.422 1.5 1.422.805 0 1.5-.615 1.5-1.422V9.471zm-17 0C5 8.666 4.305 8 3.5 8 2.695 7.999 2 8.667 2 9.472v6.106C2 16.384 2.694 17 3.5 17c.805 0 1.5-.615 1.5-1.422V9.471zm9.951-7.312L15.891.3c.068-.132-.019-.3-.163-.3a.185.185 0 00-.164.105l-.949 1.878c-1.531-.737-3.544-.812-5.229 0L8.436.105A.183.183 0 008.272 0c-.144 0-.231.168-.163.3l.94 1.859C7.204 3.193 6 4.743 6 6.999h12c0-2.256-1.204-3.806-3.049-4.84zM9.501 5a.501.501 0 010-1 .5.5 0 010 1zm4.998 0a.5.5 0 110-.999.5.5 0 010 .999z"/></symbol><symbol viewBox="0 0 24 24" id="apple" xmlns="http://www.w3.org/2000/svg"><path d="M22 17.607c-.786 2.28-3.139 6.317-5.563 6.361-1.608.031-2.125-.953-3.963-.953-1.837 0-2.412.923-3.932.983C5.97 24.097 2 18.171 2 13.003c0-4.747 3.308-7.1 6.198-7.143 1.55-.028 3.014 1.045 3.959 1.045.949 0 2.727-1.29 4.596-1.101.782.033 2.979.315 4.389 2.377-3.741 2.442-3.158 7.549.858 9.426zM16.778 0c-2.826.114-5.132 3.079-4.81 5.531 2.612.203 5.118-2.725 4.81-5.531z"/></symbol><symbol viewBox="0 0 24 24" id="camera" xmlns="http://www.w3.org/2000/svg"><path d="M5 4H2V3h3v1zm8 6c-1.654 0-3 1.346-3 3s1.346 3 3 3 3-1.346 3-3-1.346-3-3-3zm11-5v17H0V5h5.93c.669 0 1.293-.334 1.664-.891L9 2h8l1.406 2.109c.371.557.995.891 1.664.891H24zM5 9a1 1 0 10-2 0 1 1 0 002 0zm13 4a5 5 0 10-10.001.001A5 5 0 0018 13z"/></symbol><symbol viewBox="0 0 24 24" id="cloud" xmlns="http://www.w3.org/2000/svg"><path d="M12 3c-4.006 0-7.267 3.141-7.479 7.092A5.499 5.499 0 005.5 21h13a5.499 5.499 0 00.979-10.908C19.267 6.141 16.006 3 12 3z"/></symbol><symbol viewBox="0 0 24 24" id="diamond" xmlns="http://www.w3.org/2000/svg"><path d="M18 1H6.084L0 8l12 15L24 8.083 18 1zM6.333 9l3.231 7.753L3.361 9h2.972zM15.5 9L12 17.4 8.5 9h7zM9.135 7L12 3.562 14.865 7h-5.73zm8.532 2h3.028l-6.283 7.811L17.667 9zm2.794-2h-2.992l-3.334-4h2.938l3.388 4zM6.996 3h2.869L6.531 7H3.52l3.476-4z"/></symbol><symbol viewBox="0 0 24 24" id="download" xmlns="http://www.w3.org/2000/svg"><path d="M7 2V0h10v2H7zm0 4h10V4H7v2zm10 7V8H7v5H1l11 11 11-11h-6z"/></symbol><symbol viewBox="0 0 24 24" id="earth" xmlns="http://www.w3.org/2000/svg"><path d="M13.144 8.171c-.035-.066.342-.102.409-.102.074.009-.196.452-.409.102zm-2.152-3.072l.108-.031c.064.055-.072.095-.051.136.086.155.021.248.008.332-.014.085-.104.048-.149.093-.053.066.258.075.262.085.011.033-.375.089-.304.171.096.136.824-.195.708-.176.225-.113.029-.125-.097-.19-.043-.215-.079-.547-.213-.68l.088-.102c-.206-.299-.36.362-.36.362zM24 12c0 6.627-5.373 12-12 12-6.628 0-12-5.373-12-12S5.372 0 12 0c6.627 0 12 5.373 12 12zm-8.31-5.371c-.006-.146-.19-.284-.382-.031-.135.174-.111.439-.184.557-.104.175.567.339.567.174.025-.277.732-.063.87-.025.248.069.643-.226.211-.381-.355-.13-.542-.269-.574-.523 0 0 .188-.176.106-.166-.218.027-.614.786-.614.395zM21.986 12c0-1.035-.177-2.08-.357-2.632a.611.611 0 00-.359-.378c-.256-.1-1.337.597-1.5.254-.107-.229-.324.146-.572.008-.12-.066-.454-.515-.605-.46-.309.111.474.964.688 1.076.201-.152.852-.465.992-.038.268.804-.737 1.685-1.251 2.149-.768.694-.624-.449-1.147-.852-.275-.211-.272-.66-.55-.815-.124-.07-.693-.725-.688-.813l-.017.166c-.094.071-.294-.268-.315-.321 0 .295.48.765.639 1.001.271.405.416.995.748 1.326.178.178.858.914 1.035.898.193-.017.803-.458.911-.433.644.152-1.516 3.205-1.721 3.583-.169.317.138 1.101.113 1.476-.029.433-.37.573-.693.809-.346.253-.265.745-.556.925-.517.318-.889 1.353-1.623 1.348-.216-.001-1.14.36-1.261.007-.094-.256-.22-.45-.353-.703-.13-.248-.015-.505-.173-.724-.109-.152-.475-.497-.508-.677-.002-.155.117-.626.28-.708.229-.117.044-.458.016-.656-.048-.354-.267-.646-.53-.851-.389-.299-.188-.537-.097-.964 0-.204-.124-.472-.398-.392-.564.164-.393-.44-.804-.413-.296.021-.538.209-.813.292-.346.104-.7-.082-1.042-.125-1.407-.178-1.866-1.786-1.499-2.946.037-.19-.114-.542-.048-.689.158-.352.48-.747.762-1.014.158-.15.361-.112.547-.229.287-.181.291-.553.572-.781.4-.325.946-.318 1.468-.388.278-.037 1.336-.266 1.503-.06 0 .038.191.604-.019.572.433.023 1.05.749 1.461.579.211-.088.134-.736.567-.423.262.188 1.436.272 1.68.069.15-.124.234-.93.052-1.021.116.115-.611.124-.679.098-.12-.044-.232.114-.425.025.116.055-.646-.354-.218-.667-.179.131-.346-.037-.539.107-.133.108.062.18-.128.274-.302.153-.53-.525-.644-.602-.116-.076-1.014-.706-.77-.295l.789.785c-.039.025-.207-.286-.207-.059.053-.135.02.579-.104.347-.055-.089.09-.139.006-.268 0-.085-.228-.168-.272-.226-.125-.155-.457-.497-.637-.579-.05-.023-.764.087-.824.11a1.78 1.78 0 00-.179.311 2.02 2.02 0 00-.419.214l-.157.353c-.068.061-.765.291-.769.3.029-.075-.487-.171-.453-.321.038-.165.213-.68.168-.868-.048-.197 1.074.284 1.146-.235.029-.225.046-.487-.313-.525.068.008.695-.246.799-.36.146-.168.481-.442.724-.442.284 0 .223-.413.354-.615.131.053-.07.376.087.507-.01-.103.445.057.489.033.104-.054.684-.022.594-.294-.1-.277.051-.195.181-.253-.022.009.34-.619.402-.413-.043-.212-.421.074-.553.063-.305-.024-.176-.52-.061-.665.089-.115-.243-.256-.247-.036-.006.329-.312.627-.241 1.064.108.659-.735-.159-.809-.114-.28.17-.509-.214-.364-.444.148-.235.505-.224.652-.476.104-.178.225-.385.385-.52.535-.449.683-.09 1.216-.041.521.048.176.124.104.324-.069.19.286.258.409.099a2.65 2.65 0 00.298-.494c.089-.222.901-.197.334-.536-.374-.223-2.004-.672-3.096-.672-.236 0-.401.263-.581.412-.356.295-1.268.874-1.775.698-.519-.179-1.63.66-1.808.666-.065.004.004-.634.358-.681-.153.023 1.247-.707 1.209-.859-.046-.18-2.799.822-2.676 1.023.059.092.299.092-.016.294-.18.109-.372.801-.541.801-.505.221-.537-.435-1.099.409l-.894.36a9.96 9.96 0 00-2.58 5.183c-.013.079.334.226.379.28.112.134.112.712.167.901.138.478.479.744.74 1.179.154.259.41.914.329 1.186.108-.178 1.07.815 1.246 1.022.414.487.733 1.077.061 1.559-.217.156.33 1.129.048 1.368l-.361.093c-.356.219-.195.756.021.982a9.96 9.96 0 007.22 3.087c5.517 0 9.989-4.472 9.989-9.989zM10.479 5.643c.125-.055.293-.053.311-.22.015-.148.044-.046.08-.1.035-.053-.067-.138-.11-.146-.064-.014-.108.069-.149.104l-.072.019-.068.087.008.048-.087.106c-.085.084.002.139.087.102z"/></symbol><symbol viewBox="0 0 24 24" id="facebook" xmlns="http://www.w3.org/2000/svg"><path d="M9 8H6v4h3v12h5V12h3.642L18 8h-4V6.333C14 5.378 14.192 5 15.115 5H18V0h-3.808C10.596 0 9 1.583 9 4.615V8z"/></symbol><symbol viewBox="0 0 24 24" id="grim" xmlns="http://www.w3.org/2000/svg"><path d="M9.417 0h6.958L13 8h7L7 24l4.375-11H4z"/></symbol><symbol viewBox="0 0 24 24" id="heart" xmlns="http://www.w3.org/2000/svg"><path d="M12 4.435C10.011-.964 0-.162 0 8.003 0 12.071 3.06 17.484 12 23c8.94-5.516 12-10.929 12-14.997C24-.115 14-.996 12 4.435z"/></symbol><symbol viewBox="0 0 24 24" id="insta" xmlns="http://www.w3.org/2000/svg"><path d="M12 2.163c3.204 0 3.584.012 4.85.07 3.252.148 4.771 1.691 4.919 4.919.058 1.265.069 1.645.069 4.849 0 3.205-.012 3.584-.069 4.849-.149 3.225-1.664 4.771-4.919 4.919-1.266.058-1.644.07-4.85.07-3.204 0-3.584-.012-4.849-.07-3.26-.149-4.771-1.699-4.919-4.92-.058-1.265-.07-1.644-.07-4.849 0-3.204.013-3.583.07-4.849.149-3.227 1.664-4.771 4.919-4.919 1.266-.057 1.645-.069 4.849-.069zM12 0C8.741 0 8.333.014 7.053.072 2.695.272.273 2.69.073 7.052.014 8.333 0 8.741 0 12c0 3.259.014 3.668.072 4.948.2 4.358 2.618 6.78 6.98 6.98C8.333 23.986 8.741 24 12 24c3.259 0 3.668-.014 4.948-.072 4.354-.2 6.782-2.618 6.979-6.98.059-1.28.073-1.689.073-4.948 0-3.259-.014-3.667-.072-4.947-.196-4.354-2.617-6.78-6.979-6.98C15.668.014 15.259 0 12 0zm0 5.838a6.162 6.162 0 100 12.324 6.162 6.162 0 000-12.324zM12 16a4 4 0 110-8 4 4 0 010 8zm6.406-11.845a1.44 1.44 0 100 2.881 1.44 1.44 0 000-2.881z"/></symbol><symbol viewBox="0 0 24 24" id="linkedin" xmlns="http://www.w3.org/2000/svg"><path d="M4.98 3.5C4.98 4.881 3.87 6 2.5 6S.02 4.881.02 3.5C.02 2.12 1.13 1 2.5 1s2.48 1.12 2.48 2.5zM5 8H0v16h5V8zm7.982 0H8.014v16h4.969v-8.399c0-4.67 6.029-5.052 6.029 0V24H24V13.869c0-7.88-8.922-7.593-11.018-3.714V8z"/></symbol><symbol viewBox="0 0 24 24" id="people" xmlns="http://www.w3.org/2000/svg"><path d="M19 7.001A7 7 0 114.999 7 7 7 0 0119 7zm-1.598 7.18A8.937 8.937 0 0112 16.001a8.953 8.953 0 01-5.407-1.822C2.521 15.972 0 21.555 0 24h24c0-2.423-2.6-8.006-6.598-9.819z"/></symbol><symbol viewBox="0 0 24 24" id="picture" xmlns="http://www.w3.org/2000/svg"><path d="M5 8.5a1.5 1.5 0 113.001.001A1.5 1.5 0 015 8.5zm9 .5l-2.519 4L9 11.04 5 17h14l-5-8zm8-4v14H2V5h20zm2-2H0v18h24V3z"/></symbol><symbol viewBox="0 0 24 24" id="pinterest" xmlns="http://www.w3.org/2000/svg"><path d="M12 0C5.373 0 0 5.372 0 12c0 5.084 3.163 9.426 7.627 11.174-.105-.949-.2-2.405.042-3.441.218-.937 1.407-5.965 1.407-5.965s-.359-.719-.359-1.782c0-1.668.967-2.914 2.171-2.914 1.023 0 1.518.769 1.518 1.69 0 1.029-.655 2.568-.994 3.995-.283 1.194.599 2.169 1.777 2.169 2.133 0 3.772-2.249 3.772-5.495 0-2.873-2.064-4.882-5.012-4.882-3.414 0-5.418 2.561-5.418 5.207 0 1.031.397 2.138.893 2.738a.36.36 0 01.083.345l-.333 1.36c-.053.22-.174.267-.402.161-1.499-.698-2.436-2.889-2.436-4.649 0-3.785 2.75-7.262 7.929-7.262 4.163 0 7.398 2.967 7.398 6.931 0 4.136-2.607 7.464-6.227 7.464-1.216 0-2.359-.631-2.75-1.378l-.748 2.853c-.271 1.043-1.002 2.35-1.492 3.146C9.57 23.812 10.763 24 12 24c6.627 0 12-5.373 12-12 0-6.628-5.373-12-12-12z" fill-rule="evenodd" clip-rule="evenodd"/></symbol><symbol viewBox="0 0 24 24" id="power" xmlns="http://www.w3.org/2000/svg"><path d="M19 8v8H2V8h17zm2-2H0v12h21V6zm1 9h.75c.69 0 1.25-.56 1.25-1.25v-3.5C24 9.56 23.44 9 22.75 9H22v6zm-4-6H3v6h15V9z"/></symbol><symbol viewBox="0 0 24 24" id="shield" xmlns="http://www.w3.org/2000/svg"><path d="M12 4.942c1.827 1.105 3.474 1.6 5 1.833v7.76c0 1.606-.415 1.935-5 4.76V4.942zM21 3v11.535c0 4.603-3.203 5.804-9 9.465-5.797-3.661-9-4.862-9-9.465V3c3.516 0 5.629-.134 9-3 3.371 2.866 5.484 3 9 3zm-2 1.96c-2.446-.124-4.5-.611-7-2.416C9.5 4.349 7.446 4.836 5 4.96v9.575c0 3.042 1.69 3.83 7 7.107 5.313-3.281 7-4.065 7-7.107V4.96z"/></symbol><symbol viewBox="0 0 24 24" id="storage" xmlns="http://www.w3.org/2000/svg"><path d="M20 18.5a.5.5 0 11-1 0 .5.5 0 011 0zm4-2.5L19 2H5L0 16v6h24v-6zM6.334 4h11.333l3.75 11H2.583L6.334 4zM22 20H2v-3h20v3z"/></symbol><symbol viewBox="0 0 24 24" id="twi" xmlns="http://www.w3.org/2000/svg"><path d="M24 4.557a9.83 9.83 0 01-2.828.775 4.932 4.932 0 002.165-2.724 9.864 9.864 0 01-3.127 1.195 4.916 4.916 0 00-3.594-1.555c-3.179 0-5.515 2.966-4.797 6.045A13.978 13.978 0 011.671 3.149a4.93 4.93 0 001.523 6.574 4.903 4.903 0 01-2.229-.616c-.054 2.281 1.581 4.415 3.949 4.89a4.935 4.935 0 01-2.224.084 4.928 4.928 0 004.6 3.419A9.9 9.9 0 010 19.54a13.94 13.94 0 007.548 2.212c9.142 0 14.307-7.721 13.995-14.646A10.025 10.025 0 0024 4.557z"/></symbol><symbol viewBox="0 0 24 24" id="wifi" xmlns="http://www.w3.org/2000/svg"><path d="M8.213 16.984c.97-1.028 2.308-1.664 3.787-1.664s2.817.636 3.787 1.664L12 21l-3.787-4.016zM6.466 15.13c1.417-1.502 3.373-2.431 5.534-2.431s4.118.929 5.534 2.431l2.33-2.472C17.852 10.524 15.071 9.204 12 9.204s-5.852 1.32-7.864 3.455l2.33 2.471zm-4.078-4.325C4.848 8.196 8.247 6.583 12 6.583s7.152 1.613 9.612 4.222L24 8.272C20.929 5.015 16.687 3 12 3S3.071 5.015 0 8.272l2.388 2.533z"/></symbol><symbol viewBox="0 0 24 24" id="windows" xmlns="http://www.w3.org/2000/svg"><path d="M0 12V3.354l10-1.355V12H0zm11 0h13V0L11 1.807V12zm-1 1H0v7.646l10 1.355V13zm1 0v9.194L24 24V13H11z"/></symbol></svg>